<svg id="구성_요소_18_2" data-name="구성 요소 18 – 2" xmlns="http://www.w3.org/2000/svg" width="19.592" height="19.669" viewBox="0 0 19.592 19.669">
  <path id="패스_1435" data-name="패스 1435" d="M4.748.8c.828,0,1.5,1.075,1.5,2.4V22.4c0,1.325-.671,2.4-1.5,2.4s-1.5-1.075-1.5-2.4V3.2C3.249,1.875,3.92.8,4.748.8Z" transform="translate(15.74 -2.863) rotate(45)" fill="#fff"/>
  <path id="패스_1436" data-name="패스 1436" d="M1.214-.286c.828,0,1.5,1.074,1.5,2.4v19.2c0,1.325-.672,2.4-1.5,2.4s-1.5-1.074-1.5-2.4V2.115C-.286.789.386-.286,1.214-.286Z" transform="translate(0.404 2.698) rotate(-45)" fill="#fff"/>
</svg>
