<svg xmlns="http://www.w3.org/2000/svg" xmlns:xlink="http://www.w3.org/1999/xlink" width="47" height="47" viewBox="0 0 47 47">
  <defs>
    <clipPath id="clip-path">
      <rect id="사각형_11" data-name="사각형 11" width="27.733" height="24.201" fill="#222"/>
    </clipPath>
  </defs>
  <g id="구성_요소_33_1" data-name="구성 요소 33 – 1" transform="translate(2 2)">
    <g id="그룹_5508" data-name="그룹 5508" transform="translate(-2 -8)">
      <line id="선_109" data-name="선 109" y2="8" transform="translate(38 12)" fill="none" stroke="#222" stroke-linecap="round" stroke-linejoin="round" stroke-width="4"/>
      <line id="선_20" data-name="선 20" y2="16" transform="translate(32 8)" fill="none" stroke="#222" stroke-linecap="round" stroke-linejoin="round" stroke-width="4"/>
      <line id="선_4" data-name="선 4" y2="8" transform="translate(26 12)" fill="none" stroke="#222" stroke-linecap="round" stroke-linejoin="round" stroke-width="4"/>
      <line id="선_3" data-name="선 3" y2="16" transform="translate(20 8)" fill="none" stroke="#222" stroke-linecap="round" stroke-linejoin="round" stroke-width="4"/>
      <line id="선_108" data-name="선 108" y2="8" transform="translate(14 12)" fill="none" stroke="#222" stroke-linecap="round" stroke-linejoin="round" stroke-width="4"/>
      <line id="선_19" data-name="선 19" y2="16" transform="translate(8 8)" fill="none" stroke="#222" stroke-linecap="round" stroke-linejoin="round" stroke-width="4"/>
      <line id="선_5" data-name="선 5" y2="8" transform="translate(2 12)" fill="none" stroke="#222" stroke-linecap="round" stroke-linejoin="round" stroke-width="4"/>
    </g>
    <g id="ic_btm_aiTalk" transform="translate(2 13)">
      <rect id="사각형_5" data-name="사각형 5" width="32" height="32" fill="#222" opacity="0"/>
      <rect id="사각형_6" data-name="사각형 6" width="28" height="28" transform="translate(2 2)" fill="#222" opacity="0"/>
      <g id="그룹_16" data-name="그룹 16" transform="translate(2.133 3.532)">
        <g id="그룹_15" data-name="그룹 15" transform="translate(0 0)" clip-path="url(#clip-path)">
          <path id="패스_32" data-name="패스 32" d="M27.733,14.7a4.841,4.841,0,0,0-4.169-4.786,5.113,5.113,0,0,0-4.707-3.132H15.271V6.087a3.14,3.14,0,1,0-2.136,0v.695H8.874A5.11,5.11,0,0,0,4.169,9.913a4.833,4.833,0,0,0-.4,9.5v3.718A1.068,1.068,0,0,0,4.839,24.2H22.894a1.068,1.068,0,0,0,1.068-1.068V19.415A4.843,4.843,0,0,0,27.733,14.7M14.2,2.136a1,1,0,1,1-1,1,1,1,0,0,1,1-1M2.136,14.7a2.709,2.709,0,0,1,1.635-2.482v4.966A2.706,2.706,0,0,1,2.136,14.7m19.691,7.366H5.907V11.887a2.972,2.972,0,0,1,2.967-2.97h9.983a2.973,2.973,0,0,1,2.969,2.97V22.065Zm2.136-4.883V12.216a2.7,2.7,0,0,1,0,4.966" transform="translate(0 0)" fill="#222"/>
          <path id="패스_33" data-name="패스 33" d="M42.073,66.869H33.828a1.068,1.068,0,0,0,0,2.136h8.246a1.068,1.068,0,0,0,0-2.136" transform="translate(-24.105 -49.204)" fill="#222"/>
          <path id="패스_34" data-name="패스 34" d="M34.227,52.766A1.071,1.071,0,0,0,35.295,51.7a1.089,1.089,0,0,0-.314-.754,1.115,1.115,0,0,0-1.509,0,1.092,1.092,0,0,0-.313.754,1.069,1.069,0,0,0,1.068,1.068" transform="translate(-24.399 -37.269)" fill="#222"/>
          <path id="패스_35" data-name="패스 35" d="M64.678,50.945a1.115,1.115,0,0,0-.313.754,1.078,1.078,0,0,0,1.837.755,1.072,1.072,0,0,0-1.524-1.509" transform="translate(-47.361 -37.27)" fill="#222"/>
        </g>
      </g>
    </g>
    <g id="play" transform="translate(-11 -126)">
      <rect id="사각형_2374" data-name="사각형 2374" width="14" height="12" rx="4" transform="translate(42 158)" fill="#fff"/>
      <path id="다각형_2" data-name="다각형 2" d="M3,0,6,5H0Z" transform="translate(52 161) rotate(90)" fill="#3f77f2"/>
    </g>
  </g>
</svg>
