<svg id="구성_요소_39_1" data-name="구성 요소 39 – 1" xmlns="http://www.w3.org/2000/svg" width="32" height="32" viewBox="0 0 32 32">
  <g id="btn_문자" transform="translate(-296 -167)">
    <path id="패스_1410" data-name="패스 1410" d="M16,0A16,16,0,1,1,0,16,16,16,0,0,1,16,0Z" transform="translate(296 167)" fill="#706be9"/>
  </g>
  <path id="다각형_4" data-name="다각형 4" d="M5.842,3.373a2,2,0,0,1,3.542,0l4.3,8.2a2,2,0,0,1-1.771,2.93H3.309a2,2,0,0,1-1.771-2.93Z" transform="translate(22.518 11.387) rotate(90)" fill="#fff"/>
  <path id="패스_1433" data-name="패스 1433" d="M121.432,327.019v.5a2.01,2.01,0,0,1-.7,1.505l-.012.01a2.539,2.539,0,0,1-3.3-.01h0a2.01,2.01,0,0,1-.7-1.505h0a2.014,2.014,0,0,1,.7-1.505h0a2.487,2.487,0,0,1,1.656-.616h0v0a2.6,2.6,0,0,1,.615.072,2.366,2.366,0,0,1,.32.1v-5.022l-5.068,1.41-1.839.511v7.362a2.014,2.014,0,0,1-.7,1.505h0a2.489,2.489,0,0,1-1.659.616v0a2.485,2.485,0,0,1-1.657-.613h0a2.014,2.014,0,0,1-.7-1.505h0a2.01,2.01,0,0,1,.7-1.5h0v0a2.492,2.492,0,0,1,1.657-.613h0a2.575,2.575,0,0,1,.615.075,2.368,2.368,0,0,1,.322.1v-8.064a.169.169,0,0,1,.135-.168L121.21,317a.172.172,0,0,1,.214.12.15.15,0,0,1,.007.046h0v9.85Z" transform="translate(-96.914 -312.087)" fill="#b4b1f2" fill-rule="evenodd"/>
</svg>
