<svg id="구성_요소_25_1" data-name="구성 요소 25 – 1" xmlns="http://www.w3.org/2000/svg" xmlns:xlink="http://www.w3.org/1999/xlink" width="28.816" height="23.513" viewBox="0 0 28.816 23.513">
  <defs>
    <clipPath id="clip-path">
      <rect id="사각형_2375" data-name="사각형 2375" width="28.816" height="23.513" transform="translate(0 0)" fill="none"/>
    </clipPath>
  </defs>
  <g id="그룹_5511" data-name="그룹 5511" transform="translate(0 0)" clip-path="url(#clip-path)">
    <path id="패스_1426" data-name="패스 1426" d="M9.193,14.017l6.638-8.16h-3.62A4.466,4.466,0,0,0,8.486,7.5L5,11.8V0H1.5A1.494,1.494,0,0,0,0,1.5V23.513H3.5A1.5,1.5,0,0,0,5,22.019V16.161l2.833,3.485,2.42,2.968a2.246,2.246,0,0,0,1.782.9h4.891l-3.164-3.882Zm15.334,5.341a1.348,1.348,0,0,1-1.34-1.345V0H19.681a1.5,1.5,0,0,0-1.5,1.493V18.951a4.351,4.351,0,0,0,4.566,4.562H26.6a1.5,1.5,0,0,0,1.5-1.494V19.358Z" fill="#1a1818"/>
    <path id="패스_1427" data-name="패스 1427" d="M5.474,11.2l.006,0c-.006,0-.006,0-.01,0ZM28.816,4.551l-.307.333c-.017.005-.955.962-3.65.962H12.121A4.254,4.254,0,0,0,8.438,7.553l-.4.493c-.01.01-.016.019-.026.029L5.48,11.193a5.854,5.854,0,0,1,3.463-1.112H24.859c1.861,0,3.633-.536,3.9-1.862a1.3,1.3,0,0,0,.055-.347Z" fill="#e50019"/>
  </g>
</svg>
