<svg id="구성_요소_16" data-name="구성 요소 16" xmlns="http://www.w3.org/2000/svg" xmlns:xlink="http://www.w3.org/1999/xlink" width="47.874" height="16.006" viewBox="0 0 47.874 16.006">
  <defs>
    <clipPath id="clip-path">
      <rect id="사각형_2377" data-name="사각형 2377" width="19.684" height="16" transform="translate(0 0)" fill="none"/>
    </clipPath>
  </defs>
  <g id="kt링고_로고" data-name="kt링고 로고">
    <g id="그룹_5516" data-name="그룹 5516" transform="translate(0 0)">
      <g id="그룹_5515" data-name="그룹 5515" transform="translate(0 0)" clip-path="url(#clip-path)">
        <path id="패스_1429" data-name="패스 1429" d="M6.258,9.538,8.265,7.069H5.916a3.487,3.487,0,0,0-2.339.743L3.4,8.03V0H1.014A1.016,1.016,0,0,0,0,1.017V16H2.384A1.017,1.017,0,0,0,3.4,14.982V11L5.33,13.368,6.973,15.39A1.53,1.53,0,0,0,8.188,16h3.327L9.362,13.359Zm9.518,2.719V7.069h-3.4V12.9A2.96,2.96,0,0,0,15.479,16H18.1a1.019,1.019,0,0,0,1.018-1.018V13.172H16.688a.914.914,0,0,1-.912-.915m3.907-7.018V2.98l-.211.223a3.548,3.548,0,0,1-2.481.657H15.776V0H13.391a1.017,1.017,0,0,0-1.018,1.015V3.86H8.321a2.9,2.9,0,0,0-2.5,1.16L3.825,7.474a3.665,3.665,0,0,1,2.323-.891H16.991a3.26,3.26,0,0,0,2.42-.691.921.921,0,0,0,.272-.652" transform="translate(0 0)" fill="#fff"/>
      </g>
    </g>
    <path id="패스_1431" data-name="패스 1431" d="M10.976-2.612a.309.309,0,0,1-.35.35H9.618V-9.724q0-.35.336-.35h1.022Zm-4.7-6.734a.739.739,0,0,1,.532.154.764.764,0,0,1,.154.546v2.408A.767.767,0,0,1,6.8-5.7a.718.718,0,0,1-.532.161H2.856v1.5a.173.173,0,0,0,.2.2A18.791,18.791,0,0,0,8.078-4.39l.168.658a.766.766,0,0,1,.028.168.259.259,0,0,1-.105.21.908.908,0,0,1-.357.14,14.284,14.284,0,0,1-2.38.392A27.535,27.535,0,0,1,2.548-2.7a1.185,1.185,0,0,1-.8-.259,1.006,1.006,0,0,1-.259-.763v-2.24A.631.631,0,0,1,2.2-6.672H5.586v-1.3A.161.161,0,0,0,5.4-8.156H1.876q-.336,0-.336-.35v-.84Zm.854,7.308a4.74,4.74,0,0,1,2.9.7,2.273,2.273,0,0,1,.9,1.89,2.254,2.254,0,0,1-.9,1.883,4.777,4.777,0,0,1-2.9.693,4.772,4.772,0,0,1-2.905-.693A2.26,2.26,0,0,1,3.332.552a2.273,2.273,0,0,1,.9-1.89A4.74,4.74,0,0,1,7.126-2.038ZM7.028-.89Q4.69-.89,4.69.552q0,1.414,2.338,1.414H7.21q2.338,0,2.338-1.414Q9.548-.89,7.21-.89ZM22.331-9.2a.662.662,0,0,1,.756.742A30.352,30.352,0,0,1,22.6-2.38a.436.436,0,0,1-.1.238.248.248,0,0,1-.21.056L21.295-2.2a24.3,24.3,0,0,0,.357-2.688q.119-1.47.119-2.884a.245.245,0,0,0-.049-.175.245.245,0,0,0-.175-.049H15.2a.318.318,0,0,1-.245-.1.356.356,0,0,1-.091-.252V-9.2ZM18.859-.518h3.864A3.733,3.733,0,0,0,24.4-.8v.91a.436.436,0,0,1-.147.35,1.01,1.01,0,0,1-.511.175,8.6,8.6,0,0,1-1.064.049H13.427V-.168a.35.35,0,0,1,.091-.259.331.331,0,0,1,.245-.091h3.724v-3.92a.309.309,0,0,1,.35-.35h1.022Z" transform="translate(23.471 12.878)" fill="#fff"/>
  </g>
</svg>
