<svg xmlns="http://www.w3.org/2000/svg" xmlns:xlink="http://www.w3.org/1999/xlink" width="24" height="24" viewBox="0 0 24 24">
  <defs>
    <clipPath id="clip-path">
      <rect id="사각형_2331" data-name="사각형 2331" width="21.556" height="21.556" transform="translate(0 0)" fill="none"/>
    </clipPath>
  </defs>
  <g id="icon_create" transform="translate(0 0)">
    <g id="guide_icon">
      <rect id="사각형_277" data-name="사각형 277" width="24" height="24" fill="none"/>
      <circle id="타원_44" data-name="타원 44" cx="12" cy="12" r="12" fill="none"/>
      <rect id="사각형_278" data-name="사각형 278" width="24" height="17" transform="translate(20.5) rotate(90)" fill="none"/>
      <rect id="사각형_279" data-name="사각형 279" width="24" height="17" transform="translate(0 3.5)" fill="none"/>
    </g>
    <g id="icon_create-2" data-name="icon_create" transform="translate(3.598 0)">
      <g id="그룹_5374" data-name="그룹 5374">
        <g id="그룹_5375" data-name="그룹 5375" transform="translate(-0.141)">
          <line id="선_7" data-name="선 7" y1="1" transform="translate(4.915 1)" fill="none" stroke="#000" stroke-linecap="round" stroke-linejoin="round" stroke-width="2"/>
          <line id="선_8" data-name="선 8" y1="1" transform="translate(4.915 4.742)" fill="none" stroke="#000" stroke-linecap="round" stroke-linejoin="round" stroke-width="2"/>
          <line id="선_9" data-name="선 9" x1="1" transform="translate(2.543 3.371)" fill="none" stroke="#000" stroke-linecap="round" stroke-linejoin="round" stroke-width="2"/>
          <line id="선_10" data-name="선 10" x1="1" transform="translate(6.286 3.371)" fill="none" stroke="#000" stroke-linecap="round" stroke-linejoin="round" stroke-width="2"/>
        </g>
        <g id="그룹_5376" data-name="그룹 5376" transform="translate(-0.258 0.116)">
          <line id="선_11" data-name="선 11" y1="1" transform="translate(17.031 12.884)" fill="none" stroke="#000" stroke-linecap="round" stroke-linejoin="round" stroke-width="2"/>
          <line id="선_12" data-name="선 12" y1="1" transform="translate(17.031 16.627)" fill="none" stroke="#000" stroke-linecap="round" stroke-linejoin="round" stroke-width="2"/>
          <line id="선_13" data-name="선 13" x1="1" transform="translate(14.66 15.256)" fill="none" stroke="#000" stroke-linecap="round" stroke-linejoin="round" stroke-width="2"/>
          <line id="선_14" data-name="선 14" x1="1" transform="translate(18.402 15.256)" fill="none" stroke="#000" stroke-linecap="round" stroke-linejoin="round" stroke-width="2"/>
        </g>
        <g id="그룹_5378" data-name="그룹 5378" transform="translate(-3.412 2.222)">
          <g id="그룹_5377" data-name="그룹 5377" clip-path="url(#clip-path)">
            <path id="패스_1363" data-name="패스 1363" d="M1.586,19.971h0a2,2,0,0,1,0-2.828L17.142,1.586a2,2,0,0,1,2.829,2.829L4.414,19.971A2,2,0,0,1,1.586,19.971Z" fill="none" stroke="#000" stroke-linecap="round" stroke-linejoin="round" stroke-width="2"/>
            <line id="선_15" data-name="선 15" x2="2.828" y2="2.828" transform="translate(13.064 5.663)" fill="none" stroke="#000" stroke-linecap="round" stroke-linejoin="round" stroke-width="2"/>
          </g>
        </g>
      </g>
    </g>
  </g>
</svg>
