<svg id="icon_msg" xmlns="http://www.w3.org/2000/svg" width="32" height="32" viewBox="0 0 32 32">
  <rect id="사각형_2362" data-name="사각형 2362" width="32" height="32" rx="8" fill="#fff"/>
  <g id="그룹_5454" data-name="그룹 5454" transform="translate(0.515 3.729)">
    <g id="그룹_5456" data-name="그룹 5456" transform="translate(4.515 2.852)">
      <circle id="타원_208" data-name="타원 208" cx="8" cy="8" r="8" transform="translate(8.971 7.42)" fill="#05a4ae"/>
      <text id="가" transform="translate(12.471 18.42)" fill="#fff" font-size="9" font-family="Pretendard-Bold, Pretendard" font-weight="700" letter-spacing="-0.025em"><tspan x="0" y="0">가</tspan></text>
    </g>
    <path id="패스_1399" data-name="패스 1399" d="M4.81,1.045c3.077-2.1,6.442.186,6.831,3.331" transform="translate(13.63 6.159) rotate(-13)" fill="none" stroke="#06a4ae" stroke-linecap="round" stroke-width="1.5"/>
    <path id="패스_1400" data-name="패스 1400" d="M14.419,1.951l-.75,3.25-3.25-.75" transform="translate(11.935 6.2) rotate(-13)" fill="none" stroke="#06a4ae" stroke-linecap="round" stroke-linejoin="round" stroke-width="1.5"/>
  </g>
  <g id="그룹_5457" data-name="그룹 5457" transform="translate(-38 -148)">
    <path id="패스_1401" data-name="패스 1401" d="M7.041.842s4.688,8.591,2.8,9.179a14.138,14.138,0,0,1-2.8.08v3.873H1.389s-1.032,4.35,5.144,3.379c0,0,.63,4.388-5.144,4.117" transform="translate(40.676 152.158)" fill="none" stroke="#06a4ae" stroke-linecap="round" stroke-linejoin="round" stroke-width="2"/>
    <path id="패스_1402" data-name="패스 1402" d="M44.632,155v1.5" transform="translate(-1.037 2.237)" fill="none" stroke="#06a4ae" stroke-linecap="round" stroke-width="2"/>
  </g>
</svg>
