<svg id="icon_pull" xmlns="http://www.w3.org/2000/svg" width="24" height="24" viewBox="0 0 24 24">
  <rect id="사각형_2392" data-name="사각형 2392" width="24" height="24" fill="#ff1e1e" opacity="0"/>
  <g id="그룹_5542" data-name="그룹 5542" transform="translate(1.655 -1)">
    <path id="패스_1368" data-name="패스 1368" d="M1.921,4.578c-2.305,3.728.011,7.57,3.7,11.26s7.537,6.009,11.267,3.7A25.069,25.069,0,0,0,20.1,16.908a1.2,1.2,0,0,0,0-1.7l-2.545-2.546a1.2,1.2,0,0,0-1.7,0L13.931,14.6S12.053,16.025,8.7,12.677C5.44,9.412,6.8,7.586,6.8,7.586L8.79,5.593a1.2,1.2,0,0,0,0-1.7L6.245,1.351a1.2,1.2,0,0,0-1.7,0S1.894,4.24,1.921,4.578Z" transform="translate(21.456 23.46) rotate(180)" fill="#ccc"/>
  </g>
  <g id="그룹_5543" data-name="그룹 5543" transform="translate(-6.321 6.73)">
    <path id="합치기_9" data-name="합치기 9" d="M14.6,397h4a.75.75,0,0,1,.75.75v4a.75.75,0,0,1-1.5,0V398.5H14.6a.75.75,0,1,1,0-1.5Z" transform="translate(-0.376 -391.788)" fill="#9e9c9c"/>
    <path id="패스_1435" data-name="패스 1435" d="M95.5-146.783l-5.591,5.388-3.586-3.882" transform="translate(-78 153.332)" fill="none" stroke="#9e9c9c" stroke-linecap="round" stroke-linejoin="round" stroke-width="1.5"/>
  </g>
</svg>
