<svg xmlns="http://www.w3.org/2000/svg" width="24" height="24" viewBox="0 0 24 24">
  <g id="icon_notification" transform="translate(1 0.371)">
    <g id="guide_icon" transform="translate(-1 -0.371)">
      <rect id="사각형_277" data-name="사각형 277" width="24" height="24" fill="none"/>
      <circle id="타원_44" data-name="타원 44" cx="12" cy="12" r="12" fill="none"/>
      <rect id="사각형_278" data-name="사각형 278" width="24" height="17" transform="translate(20.5) rotate(90)" fill="none"/>
      <rect id="사각형_279" data-name="사각형 279" width="24" height="17" transform="translate(0 3.5)" fill="none"/>
    </g>
    <line id="선_2" data-name="선 2" x2="4" transform="translate(9 22.129)" fill="none" stroke="#fff" stroke-linecap="round" stroke-linejoin="round" stroke-width="2"/>
    <path id="패스_1362" data-name="패스 1362" d="M19,14.619H18V8.972a6.8,6.8,0,0,0-7-6.588A6.8,6.8,0,0,0,4,8.972v5.647H3a1.886,1.886,0,1,0,0,3.765H19a1.886,1.886,0,1,0,0-3.765Z" transform="translate(0 0.245)" fill="none" stroke="#fff" stroke-linecap="round" stroke-linejoin="round" stroke-width="2"/>
    <line id="선_1" data-name="선 1" y2="1" transform="translate(11 1.129)" fill="none" stroke="#fff" stroke-linecap="round" stroke-linejoin="round" stroke-width="2"/>
  </g>
</svg>
