<svg id="btn_전화" xmlns="http://www.w3.org/2000/svg" width="32" height="32" viewBox="0 0 32 32">
  <circle id="타원_203" data-name="타원 203" cx="16" cy="16" r="16" fill="#706be9"/>
  <g id="그룹_5403" data-name="그룹 5403" transform="translate(6.4 6.4)">
    <g id="guide_icon">
      <rect id="사각형_277" data-name="사각형 277" width="20" height="20" transform="translate(-0.4 -0.4)" fill="none"/>
      <circle id="타원_44" data-name="타원 44" cx="10" cy="10" r="10" transform="translate(-0.4 -0.4)" fill="none"/>
      <rect id="사각형_278" data-name="사각형 278" width="19.2" height="13.6" transform="translate(16.4) rotate(90)" fill="none"/>
      <rect id="사각형_279" data-name="사각형 279" width="19.2" height="13.6" transform="translate(0 2.8)" fill="none"/>
    </g>
    <path id="패스_1368" data-name="패스 1368" d="M1.757,3.943c-1.9,3.066.009,6.225,3.044,9.26s6.2,4.942,9.266,3.04a20.617,20.617,0,0,0,2.644-2.16.986.986,0,0,0,0-1.4l-2.093-2.094a.988.988,0,0,0-1.4,0l-1.588,1.588s-1.544,1.175-4.3-1.578C5.674,8.941,5.469,7.732,5.6,6.8a.866.866,0,0,1,.164-.381l.047-.047L7.406,4.777a.987.987,0,0,0,0-1.395L5.313,1.289a.988.988,0,0,0-1.4,0A20.252,20.252,0,0,0,1.757,3.943Z" transform="translate(0.6 0.6)" fill="#fff"/>
  </g>
</svg>
