<svg id="구성_요소_24_1" data-name="구성 요소 24 – 1" xmlns="http://www.w3.org/2000/svg" width="32" height="32" viewBox="0 0 32 32">
  <g id="btn_문자" transform="translate(-296 -167)">
    <path id="패스_1410" data-name="패스 1410" d="M16,0A16,16,0,1,1,0,16,16,16,0,0,1,16,0Z" transform="translate(296 167)" fill="#706be9"/>
  </g>
  <path id="패스_1433" data-name="패스 1433" d="M123.387,328.522v.572a2.312,2.312,0,0,1-.8,1.731l-.014.011a2.92,2.92,0,0,1-3.8-.011h0a2.312,2.312,0,0,1-.8-1.731h0a2.317,2.317,0,0,1,.8-1.731h0a2.86,2.86,0,0,1,1.905-.708h0v0a2.994,2.994,0,0,1,.708.083,2.725,2.725,0,0,1,.368.116v-5.776l-5.828,1.621-2.115.588v8.466a2.316,2.316,0,0,1-.8,1.731h0a2.862,2.862,0,0,1-1.908.708v0a2.858,2.858,0,0,1-1.905-.705h0a2.317,2.317,0,0,1-.8-1.731h0a2.312,2.312,0,0,1,.8-1.731h0v0a2.866,2.866,0,0,1,1.905-.705h0a2.963,2.963,0,0,1,.708.086,2.726,2.726,0,0,1,.371.116v-9.273a.194.194,0,0,1,.155-.194l10.8-3.05a.2.2,0,0,1,.246.138.173.173,0,0,1,.008.052h0v11.328Z" transform="translate(-101.396 -309.996)" fill="#fff" fill-rule="evenodd"/>
</svg>
